<svg width="110" height="44" viewBox="0 0 110 44" fill="none" xmlns="http://www.w3.org/2000/svg">
<path d="M2.024 43.6C1.736 43.248 1.48 42.944 1.256 42.688C1.032 42.464 0.872 42.224 0.776 41.968C0.712 41.744 0.712 41.504 0.776 41.248C0.776 41.312 0.84 41.12 0.968 40.672C1.096 40.256 1.24 39.712 1.4 39.04C1.592 38.4 1.736 37.776 1.832 37.168L2.648 33.568C2.52 33.344 2.536 33.104 2.696 32.848C2.888 32.56 3.096 32.272 3.32 31.984L6.536 31.456C7.048 31.328 7.624 30.992 8.264 30.448C8.936 29.904 9.576 29.296 10.184 28.624C10.792 27.952 11.288 27.36 11.672 26.848C12.76 25.376 13.672 23.952 14.408 22.576C15.176 21.168 15.848 19.728 16.424 18.256C17.032 16.752 17.608 15.152 18.152 13.456C18.728 11.728 19.368 9.808 20.072 7.696C20.36 7.44 20.568 6.976 20.696 6.304C20.824 5.632 20.888 5.136 20.888 4.816C20.6 4.688 20.36 4.656 20.168 4.72C19.976 4.784 19.752 4.784 19.496 4.72C18.984 4.464 18.616 4.08 18.392 3.568C18.2 3.056 18.168 2.592 18.296 2.176C18.456 2.144 18.632 2.16 18.824 2.224C19.016 2.256 19.256 2.272 19.544 2.272C19.832 2.272 20.168 2.24 20.552 2.176C20.872 2.112 21.368 2.032 22.04 1.936C22.712 1.84 23.336 1.744 23.912 1.648C24.52 1.552 24.872 1.472 24.968 1.408C26.312 1.28 27.496 1.184 28.52 1.12C29.576 1.024 30.584 0.959999 31.544 0.927999C32.504 0.863998 33.544 0.831998 34.664 0.831998C35.208 0.831998 35.704 0.991998 36.152 1.312C36.632 1.632 36.92 1.968 37.016 2.32C37.048 2.672 36.936 3.36 36.68 4.384C36.424 5.408 36.088 6.624 35.672 8.032C35.256 9.44 34.792 10.928 34.28 12.496C33.768 14.032 33.224 15.536 32.648 17.008C32.104 18.48 31.592 19.776 31.112 20.896C30.856 21.696 30.552 22.528 30.2 23.392C29.88 24.256 29.544 25.152 29.192 26.08C29.064 26.592 28.904 27.12 28.712 27.664C28.552 28.176 28.376 28.752 28.184 29.392C28.248 29.616 28.344 29.776 28.472 29.872C28.6 29.936 28.872 29.936 29.288 29.872C30.12 29.712 30.616 29.6 30.776 29.536C30.968 29.44 31.16 29.296 31.352 29.104C31.384 29.072 31.48 29.056 31.64 29.056C31.832 29.056 31.992 29.088 32.12 29.152C32.792 29.376 33.304 29.712 33.656 30.16C34.008 30.576 34.184 30.912 34.184 31.168C34.12 32.192 33.864 33.312 33.416 34.528C33 35.776 32.488 36.992 31.88 38.176C31.304 39.36 30.76 40.432 30.248 41.392C30.12 41.808 30.056 42.032 30.056 42.064C30.088 42.128 30.088 42.192 30.056 42.256C30.056 42.32 29.896 42.576 29.576 43.024C29.384 43.216 29.128 43.232 28.808 43.072C28.52 42.912 28.232 42.672 27.944 42.352C27.688 42.064 27.512 41.856 27.416 41.728C27.32 41.376 27.32 41.008 27.416 40.624C27.512 40.24 27.72 39.728 28.04 39.088C28.68 37.872 29.288 36.688 29.864 35.536C30.44 34.384 30.808 33.408 30.968 32.608L30.632 32.224C30.504 32.32 30.104 32.4 29.432 32.464C28.76 32.496 28.008 32.528 27.176 32.56C26.376 32.592 25.672 32.624 25.064 32.656C24.488 32.656 24.2 32.656 24.2 32.656C24.04 32.528 23.896 32.464 23.768 32.464C23.672 32.432 23.432 32.464 23.048 32.56L20.024 32.656C19.8 32.656 19.608 32.656 19.448 32.656C19.288 32.624 19.112 32.64 18.92 32.704C18.28 32.832 17.784 32.896 17.432 32.896C17.112 32.864 16.6 32.896 15.896 32.992C15.832 32.992 15.512 33.024 14.936 33.088C14.36 33.152 13.672 33.216 12.872 33.28C12.104 33.344 11.336 33.424 10.568 33.52C9.832 33.584 9.208 33.648 8.696 33.712C8.216 33.744 8.008 33.76 8.072 33.76C7.304 33.76 6.76 33.872 6.44 34.096C6.12 34.352 5.752 34.512 5.336 34.576C5.016 35.664 4.696 36.8 4.376 37.984C4.088 39.2 3.832 40.24 3.608 41.104C3.416 41.968 3.304 42.448 3.272 42.544C3.24 42.768 3.128 42.96 2.936 43.12C2.776 43.312 2.472 43.472 2.024 43.6ZM11.96 30.976C12.408 30.976 13.112 30.944 14.072 30.88C15.064 30.816 16.152 30.736 17.336 30.64C18.552 30.544 19.704 30.448 20.792 30.352C21.912 30.224 22.856 30.128 23.624 30.064C24.392 30 24.808 29.952 24.872 29.92C25.064 29.024 25.272 28.208 25.496 27.472C25.752 26.704 26.008 25.984 26.264 25.312C26.552 24.608 26.824 23.92 27.08 23.248C27.112 23.248 27.24 22.992 27.464 22.48C27.688 21.936 27.944 21.264 28.232 20.464C28.552 19.632 28.872 18.8 29.192 17.968C29.512 17.104 29.784 16.336 30.008 15.664C30.264 14.992 30.44 14.528 30.536 14.272C31.432 11.712 32.168 9.552 32.744 7.792C33.352 6 33.736 4.576 33.896 3.52C33.352 3.424 32.632 3.392 31.736 3.424C30.872 3.424 29.96 3.456 29 3.52C28.04 3.584 27.144 3.696 26.312 3.856C25.512 4.016 24.872 4.192 24.392 4.384L23.48 6.64C23.416 6.8 23.224 7.392 22.904 8.416C22.616 9.44 22.2 10.736 21.656 12.304C21.144 13.872 20.536 15.568 19.832 17.392C19.128 19.184 18.36 20.976 17.528 22.768C16.696 24.528 15.8 26.128 14.84 27.568C13.912 29.008 12.952 30.144 11.96 30.976ZM37.4795 43.552C36.7115 43.776 35.8635 43.808 34.9355 43.648C34.0395 43.52 33.2555 43.248 32.5835 42.832C31.8795 42.416 31.4795 41.952 31.3835 41.44C31.3515 41.248 31.4155 41.04 31.5755 40.816C31.7035 40.592 31.8795 40.432 32.1035 40.336C32.2955 40.272 32.4715 40.336 32.6315 40.528C32.8875 40.688 33.3515 40.88 34.0235 41.104C34.6955 41.36 35.4475 41.408 36.2795 41.248C37.0155 41.088 37.7355 40.656 38.4395 39.952C39.1755 39.248 39.7675 38.592 40.2155 37.984C40.4715 37.6 40.9035 36.912 41.5115 35.92C42.1195 34.928 42.7435 33.84 43.3835 32.656C44.0555 31.44 44.6155 30.32 45.0635 29.296C45.1595 29.04 45.2715 28.736 45.3995 28.384C45.5275 28.032 45.6875 27.744 45.8795 27.52C46.0715 27.136 46.2315 26.784 46.3595 26.464C46.5195 26.112 46.6155 25.872 46.6475 25.744C46.6795 25.584 46.8235 25.264 47.0795 24.784C47.3355 24.304 47.5755 23.824 47.7995 23.344C47.9595 22.864 48.1995 22.16 48.5195 21.232C48.8395 20.304 49.1595 19.552 49.4795 18.976C49.8635 18.24 50.1675 17.648 50.3915 17.2C50.6475 16.72 50.9195 16.432 51.2075 16.336C51.4955 16.112 51.6875 16 51.7835 16C51.9115 16 52.1515 16.096 52.5035 16.288C52.8875 16.672 53.1275 17.056 53.2235 17.44C53.3195 17.792 53.2715 18.24 53.0795 18.784C52.9195 19.296 52.5995 20 52.1195 20.896C51.8635 21.664 51.5755 22.368 51.2555 23.008C50.9675 23.616 50.7435 24.016 50.5835 24.208C50.4235 24.592 50.2315 25.024 50.0075 25.504C49.8155 25.952 49.6395 26.368 49.4795 26.752C48.9035 28.032 48.4075 29.072 47.9915 29.872C47.5755 30.672 47.2075 31.408 46.8875 32.08C46.5675 32.752 46.2315 33.536 45.8795 34.432C45.1435 35.616 44.4235 36.736 43.7195 37.792C43.0475 38.88 42.3275 39.888 41.5595 40.816C41.2395 41.104 40.8395 41.44 40.3595 41.824C39.8795 42.208 39.3835 42.56 38.8715 42.88C38.3915 43.2 37.9275 43.424 37.4795 43.552ZM43.9595 32.032C43.4795 31.968 42.9995 31.68 42.5195 31.168C42.0715 30.656 41.7195 30.112 41.4635 29.536C41.2075 28.96 41.1115 28.544 41.1755 28.288C41.1755 28.128 41.1755 28 41.1755 27.904C41.1755 27.808 41.1755 27.76 41.1755 27.76C40.9835 27.76 40.8075 27.52 40.6475 27.04C40.5195 26.56 40.4235 25.936 40.3595 25.168C40.2955 24.4 40.2475 23.584 40.2155 22.72C40.2155 21.856 40.2475 21.04 40.3115 20.272C40.4395 19.728 40.5035 19.136 40.5035 18.496C40.5035 17.824 40.5195 17.296 40.5515 16.912C40.5195 16.4 40.5675 16.064 40.6955 15.904C40.8235 15.712 40.9515 15.568 41.0795 15.472C41.9755 15.088 42.5675 15.328 42.8555 16.192C43.1755 17.024 43.2555 18.592 43.0955 20.896C43.0315 22.176 43.0315 23.456 43.0955 24.736C43.1595 26.016 43.3355 27.136 43.6235 28.096C43.9435 29.056 44.3755 29.712 44.9195 30.064C45.1435 30.192 45.2555 30.368 45.2555 30.592C45.2555 30.816 45.1915 31.056 45.0635 31.312C44.9355 31.536 44.7595 31.728 44.5355 31.888C44.3435 32.016 44.1515 32.064 43.9595 32.032ZM69.1509 16.96C69.5989 16.704 70.0629 16.624 70.5429 16.72C71.0229 16.784 71.3909 16.992 71.6469 17.344C71.9349 17.664 71.9829 18.08 71.7909 18.592C71.8549 18.4 71.7749 18.528 71.5509 18.976C71.3589 19.392 71.1029 19.936 70.7829 20.608C70.4949 21.28 70.2229 21.92 69.9669 22.528C69.7429 23.104 69.5989 23.44 69.5349 23.536V23.68C70.0469 23.68 70.3509 23.84 70.4469 24.16C70.5749 24.448 70.6229 24.784 70.5909 25.168C70.2069 25.232 69.9349 25.344 69.7749 25.504C69.6149 25.632 69.4069 25.712 69.1509 25.744C69.0549 25.744 68.9429 25.792 68.8149 25.888C68.6869 25.984 68.6069 26.096 68.5749 26.224C68.5429 26.32 68.4469 26.704 68.2869 27.376C68.1589 28.016 67.9989 28.72 67.8069 29.488C67.6469 30.224 67.5029 30.784 67.3749 31.168C67.3109 31.424 67.1829 31.632 66.9909 31.792C66.7989 31.92 66.6709 32 66.6069 32.032C65.9669 31.776 65.5349 31.616 65.3109 31.552C65.1189 31.456 64.9269 31.328 64.7349 31.168C64.7029 30.976 64.7029 30.752 64.7349 30.496C64.7669 30.208 64.8469 29.872 64.9749 29.488C65.1349 29.008 65.2629 28.56 65.3589 28.144C65.4869 27.696 65.6149 27.072 65.7429 26.272C65.6149 26.208 65.3429 26.208 64.9269 26.272C64.5429 26.304 64.1269 26.352 63.6789 26.416C63.2309 26.48 62.8469 26.544 62.5269 26.608C62.2389 26.672 62.1109 26.688 62.1429 26.656C61.9829 26.72 61.6789 26.768 61.2309 26.8C60.8149 26.8 60.3829 26.784 59.9349 26.752C59.5189 26.688 59.2149 26.624 59.0229 26.56L58.7349 26.704C58.7029 27.024 58.5589 27.504 58.3029 28.144C58.0469 28.752 57.9189 29.328 57.9189 29.872C57.8869 30.288 57.8229 30.704 57.7269 31.12C57.6309 31.536 57.5669 31.968 57.5349 32.416C57.5029 33.12 57.3109 33.552 56.9589 33.712C56.6389 33.872 56.1429 33.76 55.4709 33.376C55.3109 33.28 55.1509 33.168 54.9909 33.04C54.8629 32.912 54.7189 32.768 54.5589 32.608L55.3269 28.912C55.4549 28.464 55.5669 28.048 55.6629 27.664C55.7589 27.248 55.8709 26.848 55.9989 26.464C56.2549 25.76 56.4949 25.04 56.7189 24.304C56.9749 23.568 57.2629 22.88 57.5829 22.24C57.5829 22.24 57.6309 22.08 57.7269 21.76C57.8549 21.408 57.9989 21.024 58.1589 20.608C58.3189 20.16 58.4469 19.808 58.5429 19.552C58.6389 19.296 58.6549 19.248 58.5909 19.408C58.6869 19.216 58.8309 18.848 59.0229 18.304C59.2149 17.728 59.3909 17.184 59.5509 16.672C59.7429 16.128 59.8389 15.84 59.8389 15.808C59.9029 15.616 59.9989 15.488 60.1269 15.424C60.2549 15.328 60.4149 15.28 60.6069 15.28C61.1509 15.248 61.5989 15.376 61.9509 15.664C62.3029 15.92 62.4949 16.24 62.5269 16.624C62.4949 16.816 62.4789 16.992 62.4789 17.152C62.4789 17.312 62.4469 17.44 62.3829 17.536L59.8869 23.632V24.016C60.2069 24.208 60.6709 24.24 61.2789 24.112C61.9189 23.952 62.3989 23.872 62.7189 23.872C62.8789 23.84 63.2469 23.808 63.8229 23.776C64.4309 23.744 65.0069 23.728 65.5509 23.728C66.1269 23.728 66.4309 23.744 66.4629 23.776C66.8149 22.816 67.1349 21.92 67.4229 21.088C67.7109 20.224 68.1109 19.344 68.6229 18.448C68.6549 18.384 68.7189 18.176 68.8149 17.824C68.9429 17.472 69.0549 17.184 69.1509 16.96ZM88.0681 33.424C87.0121 33.04 86.1961 32.32 85.6201 31.264C85.0441 30.176 84.6761 29.12 84.5161 28.096C84.4841 28.096 84.3881 28.16 84.2281 28.288C84.1001 28.384 83.9401 28.544 83.7481 28.768C83.3001 29.216 82.7401 29.776 82.0681 30.448C81.3961 31.088 80.6921 31.664 79.9561 32.176C79.2521 32.656 78.5801 32.864 77.9401 32.8C77.6841 32.64 77.4121 32.464 77.1241 32.272C76.8681 32.048 76.6121 31.824 76.3561 31.6C76.2281 31.472 76.1161 31.344 76.0201 31.216C75.9561 31.088 75.8921 30.944 75.8281 30.784C75.4761 29.824 75.2841 28.976 75.2521 28.24C75.2201 27.472 75.3001 26.72 75.4921 25.984C75.7161 25.216 75.9721 24.368 76.2601 23.44C76.2921 23.344 76.4041 22.944 76.5961 22.24C76.8201 21.536 77.0761 20.736 77.3641 19.84C77.6521 18.944 77.9241 18.144 78.1801 17.44C78.4681 16.736 78.6761 16.32 78.8041 16.192C78.9001 16.192 78.9961 16.192 79.0921 16.192C79.2201 16.16 79.3321 16.144 79.4281 16.144C79.7481 16.144 79.9881 16.256 80.1481 16.48C80.2761 16.672 80.4361 16.816 80.6281 16.912C80.8521 17.008 81.0121 17.136 81.1081 17.296C81.2681 17.616 81.1561 18.304 80.7721 19.36C80.3881 20.384 79.9721 21.552 79.5241 22.864C79.1081 24.048 78.7561 25.248 78.4681 26.464C78.1801 27.648 78.1641 28.64 78.4201 29.44C78.6441 29.44 78.9481 29.248 79.3321 28.864C79.7481 28.448 80.0681 28.16 80.2921 28C80.6121 27.808 81.0281 27.44 81.5401 26.896C82.0841 26.32 82.6121 25.744 83.1241 25.168C83.6361 24.56 83.9881 24.096 84.1801 23.776C84.3081 23.584 84.5001 23.232 84.7561 22.72C85.0121 22.176 85.2681 21.6 85.5241 20.992C85.8121 20.352 86.0361 19.76 86.1961 19.216C86.3881 18.672 86.4681 18.288 86.4361 18.064C86.4041 17.744 86.4361 17.504 86.5321 17.344C86.6601 17.152 86.8521 16.976 87.1081 16.816C87.2681 16.816 87.4441 16.816 87.6361 16.816C87.8281 16.816 88.0041 16.832 88.1641 16.864C88.3561 17.088 88.5641 17.296 88.7881 17.488C89.0121 17.68 89.2361 17.888 89.4601 18.112C89.6201 18.72 89.5241 19.536 89.1721 20.56C88.8201 21.584 88.4681 22.688 88.1161 23.872C87.7641 25.056 87.5401 26.256 87.4441 27.472C87.3481 28.656 87.6681 29.696 88.4041 30.592C89.0761 30.304 89.5881 30.032 89.9401 29.776C90.3241 29.488 90.6921 29.2 91.0441 28.912C91.3961 28.592 91.8441 28.272 92.3881 27.952C92.7081 28.144 92.9481 28.528 93.1081 29.104C93.2681 29.68 93.3481 30.144 93.3481 30.496C93.2201 30.592 93.0921 30.688 92.9641 30.784C92.8681 30.848 92.7881 30.944 92.7241 31.072C92.5321 31.488 92.1481 31.904 91.5721 32.32C90.9961 32.736 90.3881 33.072 89.7481 33.328C89.1081 33.552 88.5481 33.584 88.0681 33.424ZM99.3163 32.848C98.0683 32.336 97.2523 31.632 96.8683 30.736C96.5163 29.808 96.4523 28.384 96.6763 26.464C96.7403 25.472 96.7723 24.816 96.7723 24.496C96.7723 24.176 96.5963 23.856 96.2443 23.536C96.1483 23.408 95.9723 23.232 95.7163 23.008C95.4923 22.784 95.3963 22.592 95.4283 22.432C95.3963 22.208 95.4123 21.968 95.4763 21.712C95.5403 21.424 95.6363 21.28 95.7643 21.28C95.8923 21.28 96.0203 21.248 96.1483 21.184C96.3083 21.12 96.4523 21.12 96.5803 21.184C96.7083 21.184 96.8523 21.2 97.0123 21.232C97.1723 21.264 97.2523 21.344 97.2523 21.472C97.3803 21.696 97.5883 21.728 97.8763 21.568C98.1643 21.376 98.4683 20.96 98.7883 20.32C99.1083 19.808 99.5243 19.296 100.036 18.784C100.58 18.272 101.108 17.808 101.62 17.392C102.164 16.944 102.612 16.624 102.964 16.432C103.124 16.368 103.364 16.288 103.684 16.192C104.004 16.096 104.34 16.016 104.692 15.952C105.076 15.888 105.396 15.872 105.652 15.904C106.228 15.936 106.708 16.096 107.092 16.384C107.508 16.672 107.892 17.008 108.244 17.392C108.66 17.68 108.916 18.064 109.012 18.544C109.14 19.024 109.172 19.536 109.108 20.08C109.044 20.624 108.9 21.12 108.676 21.568C108.58 21.888 108.308 22.272 107.86 22.72C107.412 23.168 106.9 23.6 106.324 24.016C105.748 24.432 105.22 24.736 104.74 24.928C104.324 25.024 103.78 25.104 103.108 25.168C102.468 25.232 101.86 25.264 101.284 25.264C100.74 25.232 100.372 25.168 100.18 25.072C99.9563 24.944 99.7803 25.12 99.6523 25.6C99.5243 26.08 99.4283 26.768 99.3643 27.664C99.3003 28.368 99.3003 28.88 99.3643 29.2C99.4283 29.52 99.4923 29.744 99.5563 29.872C99.7803 30.096 100.084 30.384 100.468 30.736C100.884 31.056 101.46 31.104 102.196 30.88C102.804 30.72 103.396 30.304 103.972 29.632C104.58 28.96 105.14 28.416 105.652 28C105.78 27.776 105.988 27.648 106.276 27.616C106.596 27.552 106.932 27.568 107.284 27.664C107.636 27.888 107.78 28.16 107.716 28.48C107.684 28.768 107.524 29.216 107.236 29.824C107.14 30.048 106.916 30.336 106.564 30.688C106.244 31.008 105.876 31.344 105.46 31.696C105.076 32.016 104.724 32.272 104.404 32.464C103.444 32.976 102.548 33.248 101.716 33.28C100.884 33.28 100.084 33.136 99.3163 32.848ZM102.148 23.104C102.852 22.944 103.412 22.832 103.828 22.768C104.244 22.704 104.644 22.528 105.028 22.24C105.412 21.92 105.892 21.328 106.468 20.464C106.596 20.112 106.628 19.76 106.564 19.408C106.532 19.056 106.452 18.816 106.324 18.688C106.036 18.368 105.684 18.272 105.268 18.4C104.884 18.496 104.516 18.672 104.164 18.928C103.94 19.024 103.604 19.264 103.156 19.648C102.74 20 102.324 20.416 101.908 20.896C101.492 21.344 101.156 21.76 100.9 22.144C100.644 22.528 100.58 22.752 100.708 22.816C100.644 22.944 100.82 23.024 101.236 23.056C101.684 23.088 101.988 23.104 102.148 23.104Z" fill="#FFD747" fill-opacity="0.86"/>
</svg>
