<svg width="14" height="14" viewBox="0 0 14 14" fill="none" xmlns="http://www.w3.org/2000/svg">
<path d="M6.65316 0.283325C2.97316 0.283325 -0.00683594 3.26999 -0.00683594 6.94999C-0.00683594 10.63 2.97316 13.6167 6.65316 13.6167C10.3398 13.6167 13.3265 10.63 13.3265 6.94999C13.3265 3.26999 10.3398 0.283325 6.65316 0.283325ZM11.2732 4.28333H9.3065C9.09785 3.45763 8.78888 2.66059 8.3865 1.90999C9.60257 2.32866 10.6273 3.17114 11.2732 4.28333ZM6.65983 1.64333C7.21316 2.44333 7.6465 3.32999 7.93316 4.28333H5.3865C5.67316 3.32999 6.1065 2.44333 6.65983 1.64333ZM1.49983 8.28333C1.39316 7.85666 1.3265 7.40999 1.3265 6.94999C1.3265 6.48999 1.39316 6.04333 1.49983 5.61666H3.75316C3.69983 6.05666 3.65983 6.49666 3.65983 6.94999C3.65983 7.40333 3.69983 7.84333 3.75316 8.28333H1.49983ZM2.0465 9.61666H4.01316C4.2265 10.45 4.53316 11.25 4.93316 11.99C3.71581 11.5736 2.69039 10.7305 2.0465 9.61666ZM4.01316 4.28333H2.0465C2.69039 3.16944 3.71581 2.32637 4.93316 1.90999C4.53078 2.66059 4.22182 3.45763 4.01316 4.28333ZM6.65983 12.2567C6.1065 11.4567 5.67316 10.57 5.3865 9.61666H7.93316C7.6465 10.57 7.21316 11.4567 6.65983 12.2567ZM8.21983 8.28333H5.09983C5.03983 7.84333 4.99316 7.40333 4.99316 6.94999C4.99316 6.49666 5.03983 6.04999 5.09983 5.61666H8.21983C8.27983 6.04999 8.3265 6.49666 8.3265 6.94999C8.3265 7.40333 8.27983 7.84333 8.21983 8.28333ZM8.3865 11.99C8.7865 11.25 9.09316 10.45 9.3065 9.61666H11.2732C10.6273 10.7288 9.60257 11.5713 8.3865 11.99ZM9.5665 8.28333C9.61983 7.84333 9.65983 7.40333 9.65983 6.94999C9.65983 6.49666 9.61983 6.05666 9.5665 5.61666H11.8198C11.9265 6.04333 11.9932 6.48999 11.9932 6.94999C11.9932 7.40999 11.9265 7.85666 11.8198 8.28333H9.5665Z" fill="black"/>
</svg>
